<?xml version="1.0" encoding="utf-8"?>
<!-- Generator: Adobe Illustrator 18.0.0, SVG Export Plug-In . SVG Version: 6.00 Build 0)  -->
<!DOCTYPE svg PUBLIC "-//W3C//DTD SVG 1.1//EN" "http://www.w3.org/Graphics/SVG/1.1/DTD/svg11.dtd">
<svg version="1.1" id="Layer_1" xmlns="http://www.w3.org/2000/svg" xmlns:xlink="http://www.w3.org/1999/xlink" x="0px" y="0px"
	 viewBox="0 0 250 250" enable-background="new 0 0 250 250" xml:space="preserve">
<g>
	<g>
		<path fill="#FFFFFF" stroke="#FF3F3D" stroke-width="3" stroke-miterlimit="10" d="M67.2,220.9H179V99.5l8.9,8L217.1,72
			l-29.3-31.9l-38.1-11.5c0,0-9.4,7.1-24.5,7.1c0,0-15.1,0.9-24.5-7.1L61.9,40.4L33,72.6l26.6,35.2l8-8.9L67.2,220.9z"/>
		<path fill="#FFFFFF" stroke="#FF3F3D" stroke-width="3.1307" stroke-miterlimit="10" d="M188.5,98l19.7-25.8l-23.8-26.4l-36-11.4"
			/>
		<path fill="#FFFFFF" stroke="#FF3F3D" stroke-width="3" stroke-miterlimit="10" d="M73.7,147.4v67h98.8V110.2"/>
	</g>
	<g>
		<path fill="#FF3F3D" d="M113.2,120.8h2.1h2.1h2.1h2.1h2.1h2.1h2.1h2.1h2.1h2.1h2.1h2.4v-2v-2.1v-2.3h-2.2v-1.9v-2.1v-2.1v-2.1
			v-2.4h-2v-2h-2.2v-2.2h-2.2v-1.9v-2.3h2.2v-2h2.2v-2.2h2v-1.9v-2.1V85v-2.1v-2.4h2.2v-1.9v-2.1v-2.2h-2.4h-2.1h-2.1h-2.1H128h-2.1
			h-2.1h-2.1h-2.1h-2.1h-2.1h-2.1h-2v2.2v2.1v1.9h2.2v2.4V85v2.1v2.1v1.9h2.2v2.2h2v2h2.2v2.3v1.9h-2.2v2.2h-2v2h-2.2v2.4v2.1v2.1
			v2.1v1.9h-2.2v2.3v2.1v2H113.2z M132.2,118.6h-2.1H128h-2.1h-2.1h-2.1h-2.1h-2.1h-1.9v-2h1.9h2.1h2.1h2.1h2.1h2.1h2.1h2.1h2.4v2
			H132.2z M117.5,76.3h2.1h2.1h2.1h2.1h2.1h2.1h2.1h2.4v2.2h-2.4h-2.1H128h-2.1h-2.1h-2.1h-2.1h-2.1h-1.9v-2.2H117.5z M115.6,112.4
			v-2.1v-2.1v-2.3h2v-2.2h2.2v-2h2v-2.2h2.2v-1.9v-2.3h-2.2v-2h-2v-2.2h-2.2v-2h-2v-2V85v-2.1v-2.4h1.9h2.1h2.1h2.1h2.1h2.1h2.1h2.1
			h2.4v2.4V85v2.1v2h-2.2v2h-2.2v2.2h-2v2H126v2.3v1.9h2.2v2.2h2v2h2.2v2.2h2.2v2.3v2.1v2.1v1.9h-2.4h-2.1H128h-2.1h-2.1h-2.1h-2.1
			h-2.1h-1.9V112.4z"/>
		<rect x="124" y="101.7" fill="#FF3F3D" width="2" height="2"/>
		<rect x="119.8" y="105.9" fill="#FF3F3D" width="2" height="2"/>
		<rect x="128.2" y="105.9" fill="#FF3F3D" width="2" height="2"/>
		<rect x="124" y="105.9" fill="#FF3F3D" width="2" height="2"/>
		<rect x="130.3" y="107.9" fill="#FF3F3D" width="2" height="2"/>
		<rect x="121.9" y="107.9" fill="#FF3F3D" width="2" height="2"/>
		<rect x="124" y="91.1" fill="#FF3F3D" width="2" height="2.2"/>
		<rect x="121.8" y="89.1" fill="#FF3F3D" width="2.2" height="2"/>
		<rect x="128.2" y="86.9" fill="#FF3F3D" width="2" height="2.2"/>
		<rect x="130.2" y="84.7" fill="#FF3F3D" width="2.2" height="2.2"/>
		<rect x="117.6" y="84.7" fill="#FF3F3D" width="2.2" height="2.2"/>
		<rect x="124" y="86.9" fill="#FF3F3D" width="2" height="2.2"/>
		<rect x="128.2" y="82.7" fill="#FF3F3D" width="2" height="2"/>
		<rect x="124" y="82.7" fill="#FF3F3D" width="2" height="2"/>
	</g>
</g>
</svg>
