<?xml version="1.0" encoding="utf-8"?>
<!-- Generator: Adobe Illustrator 18.0.0, SVG Export Plug-In . SVG Version: 6.00 Build 0)  -->
<!DOCTYPE svg PUBLIC "-//W3C//DTD SVG 1.1//EN" "http://www.w3.org/Graphics/SVG/1.1/DTD/svg11.dtd">
<svg version="1.1" id="Layer_1" xmlns="http://www.w3.org/2000/svg" xmlns:xlink="http://www.w3.org/1999/xlink" x="0px" y="0px"
	 viewBox="0 0 250 250" enable-background="new 0 0 250 250" xml:space="preserve">
<g>
	<path fill="#FFFFFF" stroke="#FF3F3D" stroke-width="3" stroke-miterlimit="10" d="M191.2,43.2c0-10.2-10.2-12-21.3-16
		c-8.4-3.1-20.3,7.3-19.9,27.5c0.3,13.5,3.4,53.2,3.4,53.2l-63.8,0.4c-30.7,0-39.4,13.1-41.3,28.2c-0.7,7.9-1.1,16.8,2.3,31.1
		c4.6,19.6,9.7,28.1,12.4,33.3c2.9,5.6,4.9,11.2,9.9,12.3l7.8,16.3H91l-8.8-18c6.3-4.1,12.4-14.6,15.6-27c1.2-4.8,1.8-7.1,1.9-11.4
		c6.3,1.3,13.4,2,20.5,2c9.5,0,17.3,0.4,26.3-1.9V201c0,5.1,3.4,10.6,8,12l7.8,16.4h10.3l-8.5-17.8c3.1-2,5.3-6.7,5.3-10.7v-31.5
		c9-4.3,19.1-16,20-30.5l-3.8-82.8L191.2,43.2z"/>
	<path fill="none" stroke="#FF3F3D" stroke-width="3" stroke-miterlimit="10" d="M56.1,163.5c-2.8-11.8-2.4-19.1-1.9-25.5
		c1.5-12.4,8.7-23.2,33.9-23.2l49.6-0.3"/>
	<path fill="#FFFFFF" stroke="#FF3F3D" stroke-width="3" stroke-miterlimit="10" d="M161.8,38c0-13.3,11.6-17.6,11.6-17.6
		c0.4-0.4,1.1-0.4,1.6,0l-1.5,15.5"/>
	<path fill="none" stroke="#FF3F3D" stroke-width="3" stroke-miterlimit="10" d="M191.6,44.5c5.3,1.2,9,1.5,9.2,3.8
		c0.3,3-3.4,6.5-8.6,8c-1.5,0.4-5.8,1-5.8,1"/>
	<path fill="#FFFFFF" stroke="#FF3F3D" stroke-width="3" stroke-miterlimit="10" d="M157.7,207.6c2.8-1.8,4.8-5.1,4.8-6.5V166
		c10-4.7,20.1-14.3,20.9-27.2l-3-71.6"/>
	<path fill="none" stroke="#FF3F3D" stroke-width="3" stroke-miterlimit="10" d="M76.3,207.1c6.9-4.4,14.2-15,16.4-28.9
		c0.9-5.4,0.8-7.2,0.9-11.9c6.9,1.4,14.8,2.3,22.5,2.8c10.8,0.7,20.1,0.9,28.9-1.6"/>
</g>
</svg>
