<?xml version="1.0" encoding="utf-8"?>
<!-- Generator: Adobe Illustrator 18.0.0, SVG Export Plug-In . SVG Version: 6.00 Build 0)  -->
<!DOCTYPE svg PUBLIC "-//W3C//DTD SVG 1.1//EN" "http://www.w3.org/Graphics/SVG/1.1/DTD/svg11.dtd">
<svg version="1.1" id="Layer_1" xmlns="http://www.w3.org/2000/svg" xmlns:xlink="http://www.w3.org/1999/xlink" x="0px" y="0px"
	 viewBox="0 0 300 300" enable-background="new 0 0 300 300" xml:space="preserve">
<g>
	<g>
		<path fill="none" stroke="#FFFFFF" stroke-width="3" stroke-miterlimit="10" d="M236.6,170.4"/>
		<path fill="none" stroke="#FFFFFF" stroke-width="3" stroke-miterlimit="10" d="M70.3,154.9c0-44.3,35.9-80.3,80.3-80.3
			s80.3,35.9,80.3,80.3"/>
		<path fill="none" stroke="#FFFFFF" stroke-width="3" stroke-miterlimit="10" d="M76.9,155.5c0-40.6,32.9-73.5,73.5-73.5
			s73.5,32.9,73.5,73.5"/>
	</g>
	<g>
		<path fill="none" stroke="#FFFFFF" stroke-width="3" stroke-miterlimit="10" d="M86.5,222.7l-21,2.9c-3.6,0.5-6.9-2-7.4-5.6
			l-7.6-55c-0.5-3.6,2-6.9,5.6-7.4l21-2.9c3.6-0.5,6.9,2,7.4,5.6l7.6,55C92.6,218.9,90,222.2,86.5,222.7z"/>
		<path fill="none" stroke="#FFFFFF" stroke-width="3" stroke-miterlimit="10" d="M79.1,169l6.2,44.8c0.2,1.2-0.7,2.3-1.9,2.5
			l-18.8,2.6"/>
		<path fill="none" stroke="#FFFFFF" stroke-width="3" stroke-miterlimit="10" d="M55.5,200c-3.3,0.5-7.3-2.4-8-6.7
			c-0.6-4.2,2.4-8.2,5.7-8.7L55.5,200z"/>
	</g>
	<g>
		<path fill="none" stroke="#FFFFFF" stroke-width="3" stroke-miterlimit="10" d="M214,222.7l21,2.9c3.6,0.5,6.9-2,7.4-5.6l7.6-55
			c0.5-3.6-2-6.9-5.6-7.4l-21-2.9c-3.6-0.5-6.9,2-7.4,5.6l-7.6,55C207.8,218.9,210.4,222.2,214,222.7z"/>
		<path fill="none" stroke="#FFFFFF" stroke-width="3" stroke-miterlimit="10" d="M242.5,172.7l-6.4,44.8c-0.2,1.2-1.3,2-2.5,1.9
			l-18.8-2.7"/>
		<path fill="none" stroke="#FFFFFF" stroke-width="3" stroke-miterlimit="10" d="M245.4,200c3.3,0.5,7.3-2.4,8-6.7
			c0.6-4.2-2.4-8.2-5.7-8.7L245.4,200z"/>
	</g>
</g>
</svg>
