<?xml version="1.0" encoding="utf-8"?>
<!-- Generator: Adobe Illustrator 18.0.0, SVG Export Plug-In . SVG Version: 6.00 Build 0)  -->
<!DOCTYPE svg PUBLIC "-//W3C//DTD SVG 1.1//EN" "http://www.w3.org/Graphics/SVG/1.1/DTD/svg11.dtd">
<svg version="1.1" id="Layer_1" xmlns="http://www.w3.org/2000/svg" xmlns:xlink="http://www.w3.org/1999/xlink" x="0px" y="0px"
	 viewBox="0 0 300 300" enable-background="new 0 0 300 300" xml:space="preserve">
<g>
	<g>
		<g>
			<circle fill="none" stroke="#FFFFFF" stroke-width="3" stroke-miterlimit="10" cx="120.5" cy="208.5" r="16.1"/>
			<path fill="none" stroke="#FFFFFF" stroke-width="3" stroke-miterlimit="10" d="M121.9,198.1c6.3,1.7,9.9,8.2,8.2,14.5"/>
			<circle fill="none" stroke="#FFFFFF" stroke-width="3" stroke-miterlimit="10" cx="120.5" cy="208.5" r="4.5"/>
		</g>
		
			<rect x="105.2" y="187.6" transform="matrix(0.8697 -0.4935 0.4935 0.8697 -80.0692 79.3922)" fill="none" stroke="#FFFFFF" stroke-width="3" stroke-miterlimit="10" width="10.3" height="7.6"/>
	</g>
	<g>
		<g>
			<circle fill="none" stroke="#FFFFFF" stroke-width="3" stroke-miterlimit="10" cx="225.7" cy="148.8" r="16.1"/>
			<path fill="none" stroke="#FFFFFF" stroke-width="3" stroke-miterlimit="10" d="M227.2,138.4c6.3,1.7,9.9,8.2,8.2,14.5"/>
			<circle fill="none" stroke="#FFFFFF" stroke-width="3" stroke-miterlimit="10" cx="225.7" cy="148.8" r="4.5"/>
		</g>
		
			<rect x="210.5" y="127.9" transform="matrix(0.8697 -0.4935 0.4935 0.8697 -36.8922 123.5499)" fill="none" stroke="#FFFFFF" stroke-width="3" stroke-miterlimit="10" width="10.3" height="7.6"/>
	</g>
	<polygon fill="none" stroke="#FFFFFF" stroke-width="3" stroke-miterlimit="10" points="244.9,76.7 257.2,80.2 236.4,115.5 
		159.4,159.2 82,203.1 40.9,202.5 44.8,190.3 78.2,190.9 227.8,106.1 	"/>
	<g>
		<polygon fill="#FFFFFF" points="233.3,112.1 80.6,198.7 46.5,197.6 47.3,194.6 79.9,195.7 231.1,109.9 247.1,81.8 250,82.7 		"/>
	</g>
</g>
</svg>
