<?xml version="1.0" encoding="utf-8"?>
<!-- Generator: Adobe Illustrator 18.0.0, SVG Export Plug-In . SVG Version: 6.00 Build 0)  -->
<!DOCTYPE svg PUBLIC "-//W3C//DTD SVG 1.1//EN" "http://www.w3.org/Graphics/SVG/1.1/DTD/svg11.dtd">
<svg version="1.1" id="Layer_1" xmlns="http://www.w3.org/2000/svg" xmlns:xlink="http://www.w3.org/1999/xlink" x="0px" y="0px"
	 viewBox="0 0 250 250" enable-background="new 0 0 250 250" xml:space="preserve">
<g>
	<g>
		<g>
			<circle fill="#FFFFFF" stroke="#FF3F3D" stroke-width="3" stroke-miterlimit="10" cx="97" cy="183.2" r="16.1"/>
			<path fill="none" stroke="#FF3F3D" stroke-width="3" stroke-miterlimit="10" d="M98.4,172.8c6.3,1.7,9.9,8.2,8.2,14.5"/>
			<circle fill="#FFFFFF" stroke="#FF3F3D" stroke-width="3" stroke-miterlimit="10" cx="97" cy="183.2" r="4.5"/>
		</g>
		
			<rect x="81.7" y="161.9" transform="matrix(0.8697 -0.4935 0.4935 0.8697 -70.4566 64.4498)" fill="#FFFFFF" stroke="#FF3F3D" stroke-width="3" stroke-miterlimit="10" width="10.3" height="7.6"/>
	</g>
	<g>
		<g>
			<circle fill="#FFFFFF" stroke="#FF3F3D" stroke-width="3" stroke-miterlimit="10" cx="202.2" cy="123.5" r="16.1"/>
			<path fill="none" stroke="#FF3F3D" stroke-width="3" stroke-miterlimit="10" d="M203.7,113c6.3,1.7,9.9,8.2,8.2,14.5"/>
			<circle fill="#FFFFFF" stroke="#FF3F3D" stroke-width="3" stroke-miterlimit="10" cx="202.2" cy="123.5" r="4.5"/>
		</g>
		
			<rect x="187" y="102.2" transform="matrix(0.8697 -0.4935 0.4935 0.8697 -27.2796 108.6075)" fill="#FFFFFF" stroke="#FF3F3D" stroke-width="3" stroke-miterlimit="10" width="10.3" height="7.6"/>
	</g>
	<polygon fill="#FFFFFF" stroke="#FF3F3D" stroke-width="3" stroke-miterlimit="10" points="221.4,51.4 233.7,54.9 212.9,90.2 
		135.9,133.9 58.5,177.8 17.4,177.2 21.3,165 54.7,165.6 204.3,80.7 	"/>
	<g>
		<polygon fill="#FF3F3D" points="209.8,86.7 57.1,173.4 23,172.3 23.8,169.3 56.4,170.3 207.6,84.5 223.6,56.5 226.5,57.4 		"/>
	</g>
</g>
</svg>
