<?xml version="1.0" encoding="utf-8"?>
<!-- Generator: Adobe Illustrator 18.0.0, SVG Export Plug-In . SVG Version: 6.00 Build 0)  -->
<!DOCTYPE svg PUBLIC "-//W3C//DTD SVG 1.1//EN" "http://www.w3.org/Graphics/SVG/1.1/DTD/svg11.dtd">
<svg version="1.1" id="Layer_1" xmlns="http://www.w3.org/2000/svg" xmlns:xlink="http://www.w3.org/1999/xlink" x="0px" y="0px"
	 viewBox="0 0 300 300" enable-background="new 0 0 300 300" xml:space="preserve">
<g>
	<polygon fill="none" points="92.6,241.3 96,243.3 139.5,172.1 140,171.3 136.6,169.2 	"/>
	<polygon fill="none" points="122.2,160.4 78.2,232.5 90,239.7 134.1,167.7 	"/>
	<polygon fill="none" points="116.6,157 110.9,165.8 72.3,228.9 75.6,230.9 119.7,158.8 	"/>
	<polygon fill="none" points="106.3,167.4 108.4,164.2 114,155 102.5,147.9 	"/>
	<path fill="none" d="M193.9,159.9c-9.1,10.2-19.6,15.5-30.5,15.5c-1,0-2,0-3-0.1l-0.4,0l-54.5-33.8l1.6-2.6l53.9,33.4
		c13.7,1.1,24.2-7.2,30.6-14.4c1.7-1.9,3.3-4,4.8-6.1c-4.2-3.9-6.8-9.5-6.8-15.6c0-11.5,9.2-21,20.7-21.3c0.6-5.8,0.4-11.4-0.6-16.6
		l2.9-0.6c1.1,5.4,1.3,11.2,0.7,17.3c1.1,0.1,2.1,0.3,3.1,0.6c0.8-7,0.7-13.7-0.6-19.7c-4.9-23.9-26.7-41.2-51.9-41.2
		c-4.2,0-8.4,0.5-12.5,1.5c-17.7,4.3-35.6,18-45.5,34.9c-9.2,15.8-11.4,33.6-6.5,51.6l60.8,37.7c0.9,0.1,1.8,0.1,2.7,0.1
		c15.6,0,27.3-10.3,34.3-18.9c1.5-1.9,3-3.9,4.4-6c-1-0.5-2-1.1-2.9-1.7C197.3,155.9,195.7,158,193.9,159.9z"/>
	<polygon fill="none" points="135.1,185.4 154.3,180.2 142.6,172.8 142.1,173.7 	"/>
	<path fill="#FFFFFF" d="M197.4,161.4c-7,8.6-18.7,18.9-34.3,18.9c-0.9,0-1.8,0-2.7-0.1l-60.8-37.7c-5-18-2.7-35.8,6.5-51.6
		C116,74,133.8,60.3,151.6,56c4.1-1,8.3-1.5,12.5-1.5c25.2,0,47,17.3,51.9,41.2c1.2,6,1.4,12.8,0.6,19.7c1,0.3,2,0.6,3,1
		c0.9-7.5,0.7-14.7-0.6-21.3c-5.2-25.3-28.2-43.6-54.8-43.6c-4.4,0-8.9,0.5-13.2,1.6c-18.5,4.5-37.1,18.7-47.4,36.3
		c-9.7,16.7-12,35.5-6.6,54.5l0.2,0.6l2,1.3l-0.8-4l20.1,12.5l-0.2,0.3l23.3,14.2l0,0l20.1,12.6l-3.7,1l1.4,0.9l0.4,0
		c1.1,0.1,2.2,0.1,3.4,0.1c9.3,0,23.1-3.5,36.6-20c1.7-2.1,3.4-4.4,4.9-6.7c-1-0.3-1.9-0.7-2.8-1.2
		C200.4,157.5,199,159.5,197.4,161.4z"/>
	<polygon fill="#FFFFFF" points="106.3,167.4 102.5,147.9 114,155 114,155 99.1,145.7 104,171.4 108.4,164.2 	"/>
	<polygon fill="#FFFFFF" points="116.4,156.8 110.9,165.8 116.6,157 	"/>
	<polygon fill="#FFFFFF" points="115.4,152.7 118.3,154.5 118.4,154.2 98.3,141.7 99.1,145.7 114,155 	"/>
	<polygon fill="#FFFFFF" points="140,171.3 140,171.3 139.5,172.1 	"/>
	<polygon fill="#FFFFFF" points="142.6,172.8 154.3,180.2 135.1,185.4 142.1,173.7 132.6,189.2 158,182.2 142.7,172.7 	"/>
	<polygon fill="#FFFFFF" points="141.6,168.7 141.6,168.7 144.1,170.3 142.7,172.7 158,182.2 161.7,181.2 	"/>
	<polygon fill="#FFFFFF" points="142.1,173.7 142.6,172.8 142.6,172.8 	"/>
	<polygon fill="#FFFFFF" points="134.1,167.7 134.2,167.5 122.4,160.2 122.2,160.4 	"/>
	<polygon fill="#FFFFFF" points="119.8,158.6 116.8,156.7 116.6,157 119.7,158.8 	"/>
	<polygon fill="#FFFFFF" points="139.5,172.1 96,243.3 92.6,241.3 92.3,241.7 89.7,240.2 90,239.7 78.2,232.5 77.5,233.6 74.9,232 
		75.6,230.9 72.3,228.9 110.9,165.8 104.7,175.3 104,171.4 68.2,229.9 97,247.4 132.6,189.2 128.7,190.3 	"/>
	<polygon fill="#FFFFFF" points="114.2,155.1 114,155 108.4,164.2 	"/>
	<polygon fill="#FFFFFF" points="136.6,169.2 140,171.3 140.1,171.2 136.7,169.1 	"/>
	<polygon fill="#FFFFFF" points="119.8,158.6 120.6,157.4 123.1,159 122.4,160.2 134.2,167.5 135.4,165.5 137.9,167.1 136.7,169.1 
		140.1,171.2 141.6,168.7 118.3,154.5 116.8,156.7 	"/>
	<polygon fill="#FFFFFF" points="110.9,165.8 116.4,156.8 116.6,157 116.8,156.7 114,155 114,155 114.2,155.1 108.4,164.2 
		104,171.4 104.7,175.3 	"/>
	<polygon fill="#FFFFFF" points="114,155 116.8,156.7 118.3,154.5 115.4,152.7 	"/>
	<polygon fill="#FFFFFF" points="142.6,172.8 142.6,172.8 142.7,172.7 140.1,171.2 140,171.3 140,171.3 139.5,172.1 128.7,190.3 
		132.6,189.2 142.1,173.7 	"/>
	<polygon fill="#FFFFFF" points="142.7,172.7 144.1,170.3 141.6,168.7 140.1,171.2 	"/>
	
		<rect x="71.1" y="203" transform="matrix(0.5216 -0.8532 0.8532 0.5216 -120.2188 194.4901)" fill="#FFFFFF" width="84.4" height="3"/>
	
		<rect x="89.7" y="240.4" transform="matrix(-0.8532 -0.5215 0.5215 -0.8532 43.4102 493.635)" fill="#FFFFFF" width="3" height="0.6"/>
	<polygon fill="#FFFFFF" points="136.6,169.2 136.7,169.1 134.2,167.5 134.1,167.7 	"/>
	<polygon fill="#FFFFFF" points="137.9,167.1 135.4,165.5 134.2,167.5 136.7,169.1 	"/>
	
		<rect x="56.7" y="194.2" transform="matrix(0.5216 -0.8532 0.8532 0.5216 -119.5909 178.0066)" fill="#FFFFFF" width="84.4" height="3"/>
	
		<rect x="75.1" y="231.6" transform="matrix(-0.8532 -0.5215 0.5215 -0.8532 20.7837 470.3374)" fill="#FFFFFF" width="3" height="1.4"/>
	<polygon fill="#FFFFFF" points="122.2,160.4 122.4,160.2 119.8,158.6 119.7,158.8 	"/>
	<polygon fill="#FFFFFF" points="123.1,159 120.6,157.4 119.8,158.6 122.4,160.2 	"/>
	<path fill="#FFFFFF" d="M191.7,157.9c-6.4,7.2-16.9,15.5-30.6,14.4l-53.9-33.4l-1.6,2.6l54.5,33.8l0.4,0c1,0.1,2,0.1,3,0.1
		c10.9,0,21.4-5.3,30.5-15.5c1.7-2,3.4-4,4.9-6.2c-0.8-0.6-1.6-1.2-2.3-1.9C195,153.9,193.4,156,191.7,157.9z"/>
	<path fill="#FFFFFF" d="M213.4,114.9c0.6-6,0.4-11.9-0.7-17.3l-2.9,0.6c1,5.1,1.2,10.8,0.6,16.6c0.2,0,0.5,0,0.7,0
		C211.9,114.8,212.6,114.8,213.4,114.9z"/>
	<path fill="#FFFFFF" d="M191.2,136.1c0-10.7,8.4-19.4,19-19.8c0.1-0.5,0.1-1,0.2-1.5c-11.5,0.4-20.7,9.8-20.7,21.3
		c0,6.2,2.6,11.7,6.8,15.6c0.3-0.4,0.6-0.8,0.8-1.2C193.6,146.9,191.2,141.8,191.2,136.1z"/>
	<path fill="#FFFFFF" d="M198.9,153.7c0.9,0.6,1.9,1.2,2.9,1.7c0.3-0.4,0.6-0.8,0.8-1.3c-1-0.5-2-1-2.9-1.7
		C199.4,152.9,199.2,153.3,198.9,153.7z"/>
	<path fill="#FFFFFF" d="M213.2,116.4c1.1,0.1,2.1,0.3,3.1,0.6c0.1-0.5,0.1-1,0.2-1.5c-1-0.3-2-0.5-3.1-0.6
		C213.3,115.4,213.3,115.9,213.2,116.4z"/>
	<path fill="#FFFFFF" d="M219.4,116.5c-0.1,0.5-0.1,1-0.2,1.6c6.9,3.1,11.7,10,11.7,18.1c0,11-8.9,19.9-19.9,19.9
		c-1.9,0-3.8-0.3-5.6-0.8c-0.3,0.4-0.6,0.9-0.9,1.3c2,0.6,4.2,1,6.4,1c11.8,0,21.4-9.6,21.4-21.4
		C232.5,127.3,227.1,119.7,219.4,116.5z"/>
	<path fill="#FFFFFF" d="M216.3,117c1,0.3,2,0.6,3,1.1c0.1-0.5,0.1-1,0.2-1.6c-1-0.4-2-0.7-3-1C216.4,116,216.4,116.5,216.3,117z"/>
	<path fill="#FFFFFF" d="M202.6,154.1c-0.3,0.4-0.6,0.8-0.8,1.3c0.9,0.4,1.9,0.8,2.8,1.2c0.3-0.4,0.6-0.9,0.9-1.3
		C204.5,154.9,203.6,154.6,202.6,154.1z"/>
	<path fill="#FFFFFF" d="M196.6,151.8c0.7,0.7,1.5,1.3,2.3,1.9c0.3-0.4,0.6-0.8,0.8-1.2c-0.8-0.6-1.6-1.2-2.3-1.9
		C197.1,151,196.8,151.4,196.6,151.8z"/>
	<path fill="#FFFFFF" d="M211.1,116.3c0.7,0,1.4,0,2.1,0.1c0.1-0.5,0.1-1,0.2-1.5c-0.7-0.1-1.5-0.1-2.3-0.1c-0.2,0-0.5,0-0.7,0
		c-0.1,0.5-0.1,1-0.2,1.5C210.5,116.3,210.8,116.3,211.1,116.3z"/>
	<path fill="#FFFFFF" d="M213,117.9c1.1,0.1,2.1,0.3,3.1,0.6c0.1-0.5,0.1-1,0.2-1.5c-1-0.3-2-0.5-3.1-0.6
		C213.1,116.9,213.1,117.4,213,117.9z"/>
	<path fill="#FFFFFF" d="M229.5,136.2c0,10.1-8.2,18.4-18.4,18.4c-1.6,0-3.2-0.2-4.7-0.6c-0.3,0.4-0.6,0.9-0.8,1.3
		c1.8,0.5,3.6,0.8,5.6,0.8c11,0,19.9-8.9,19.9-19.9c0-8.1-4.8-15-11.7-18.1c-0.1,0.5-0.2,1-0.2,1.6
		C225.2,122.5,229.5,128.8,229.5,136.2z"/>
	<path fill="#FFFFFF" d="M191.2,136.1c0,5.7,2.4,10.8,6.2,14.4c0.3-0.4,0.6-0.8,0.8-1.3c-3.4-3.3-5.5-8-5.5-13.1
		c0-9.8,7.7-17.8,17.3-18.3c0.1-0.5,0.1-1,0.2-1.5C199.6,116.8,191.2,125.5,191.2,136.1z"/>
	<path fill="#FFFFFF" d="M200.6,151.2c-0.3,0.4-0.6,0.8-0.8,1.3c0.9,0.6,1.9,1.2,2.9,1.7c0.3-0.4,0.5-0.9,0.8-1.3
		C202.4,152.4,201.5,151.8,200.6,151.2z"/>
	<path fill="#FFFFFF" d="M216.1,118.5c1,0.3,2,0.7,2.9,1.1c0.1-0.5,0.2-1,0.2-1.6c-0.9-0.4-1.9-0.8-3-1.1
		C216.2,117.5,216.1,118,216.1,118.5z"/>
	<path fill="#FFFFFF" d="M203.4,152.8c-0.3,0.4-0.5,0.9-0.8,1.3c0.9,0.4,1.9,0.8,2.9,1.1c0.3-0.4,0.6-0.9,0.8-1.3
		C205.3,153.6,204.4,153.3,203.4,152.8z"/>
	<path fill="#FFFFFF" d="M210.2,116.3c-0.1,0.5-0.1,1-0.2,1.5c0.4,0,0.7-0.1,1.1-0.1c0.6,0,1.3,0,1.9,0.1c0.1-0.5,0.1-1,0.2-1.5
		c-0.7-0.1-1.4-0.1-2.1-0.1C210.8,116.3,210.5,116.3,210.2,116.3z"/>
	<path fill="#FFFFFF" d="M197.4,150.5c0.7,0.7,1.5,1.3,2.3,1.9c0.3-0.4,0.6-0.8,0.8-1.3c-0.8-0.6-1.6-1.2-2.3-1.9
		C198,149.7,197.7,150.1,197.4,150.5z"/>
	<path fill="#FFFFFF" d="M221.2,147.4c6.2-6.2,6.2-16.4,0-22.6l-2.1,2.1c5.1,5.1,5.1,13.3,0,18.4L221.2,147.4z"/>
</g>
</svg>
