<?xml version="1.0" encoding="utf-8"?>
<!-- Generator: Adobe Illustrator 18.0.0, SVG Export Plug-In . SVG Version: 6.00 Build 0)  -->
<!DOCTYPE svg PUBLIC "-//W3C//DTD SVG 1.1//EN" "http://www.w3.org/Graphics/SVG/1.1/DTD/svg11.dtd">
<svg version="1.1" id="Layer_1" xmlns="http://www.w3.org/2000/svg" xmlns:xlink="http://www.w3.org/1999/xlink" x="0px" y="0px"
	 viewBox="0 0 300 300" enable-background="new 0 0 300 300" xml:space="preserve">
<g>
	<g>
		<path fill="none" stroke="#FFFFFF" stroke-width="3" stroke-miterlimit="10" d="M92.2,246.2h111.7V124.7l8.9,8l29.3-35.5
			l-29.3-31.9l-38.1-11.5c0,0-9.4,7.1-24.5,7.1c0,0-15.1,0.9-24.5-7.1L86.9,65.6l-29,32.2L84.5,133l8-8.9L92.2,246.2z"/>
		<path fill="none" stroke="#FFFFFF" stroke-width="3" stroke-miterlimit="10" d="M213.5,123.2l19.7-25.8L209.4,71l-36-11.4"/>
		<path fill="none" stroke="#FFFFFF" stroke-width="3" stroke-miterlimit="10" d="M98.7,172.7v67h98.8V135.4"/>
	</g>
	<g>
		<path fill="#FFFFFF" d="M138.2,146h2.1h2.1h2.1h2.1h2.1h2.1h2.1h2.1h2.1h2.1h2.1h2.4v-2v-2.1v-2.3h-2.2v-1.9v-2.1v-2.1v-2.1V129
			h-2v-2h-2.2v-2.2h-2.2v-1.9v-2.3h2.2v-2h2.2v-2.2h2v-1.9v-2.1v-2.1v-2.1v-2.4h2.2v-1.9v-2.1v-2.2h-2.4h-2.1h-2.1h-2.1H153h-2.1
			h-2.1h-2.1h-2.1h-2.1h-2.1h-2.1h-2v2.2v2.1v1.9h2.2v2.4v2.1v2.1v2.1v1.9h2.2v2.2h2v2h2.2v2.3v1.9h-2.2v2.2h-2v2h-2.2v2.4v2.1v2.1
			v2.1v1.9h-2.2v2.3v2.1v2H138.2z M157.2,143.8h-2.1H153h-2.1h-2.1h-2.1h-2.1h-2.1h-1.9v-2h1.9h2.1h2.1h2.1h2.1h2.1h2.1h2.1h2.4v2
			H157.2z M142.4,101.5h2.1h2.1h2.1h2.1h2.1h2.1h2.1h2.4v2.2h-2.4h-2.1H153h-2.1h-2.1h-2.1h-2.1h-2.1h-1.9v-2.2H142.4z M140.6,137.7
			v-2.1v-2.1v-2.3h2V129h2.2v-2h2v-2.2h2.2v-1.9v-2.3h-2.2v-2h-2v-2.2h-2.2v-2h-2v-2v-2.1v-2.1v-2.4h1.9h2.1h2.1h2.1h2.1h2.1h2.1
			h2.1h2.4v2.4v2.1v2.1v2h-2.2v2h-2.2v2.2h-2v2H151v2.3v1.9h2.2v2.2h2v2h2.2v2.2h2.2v2.3v2.1v2.1v1.9h-2.4h-2.1H153h-2.1h-2.1h-2.1
			h-2.1h-2.1h-1.9V137.7z"/>
		<rect x="149" y="127" fill="#FFFFFF" width="2" height="2"/>
		<rect x="144.8" y="131.2" fill="#FFFFFF" width="2" height="2"/>
		<rect x="153.2" y="131.2" fill="#FFFFFF" width="2" height="2"/>
		<rect x="149" y="131.2" fill="#FFFFFF" width="2" height="2"/>
		<rect x="155.3" y="133.2" fill="#FFFFFF" width="2" height="2"/>
		<rect x="146.9" y="133.2" fill="#FFFFFF" width="2" height="2"/>
		<rect x="149" y="116.4" fill="#FFFFFF" width="2" height="2.2"/>
		<rect x="146.8" y="114.4" fill="#FFFFFF" width="2.2" height="2"/>
		<rect x="153.2" y="112.2" fill="#FFFFFF" width="2" height="2.2"/>
		<rect x="155.2" y="110" fill="#FFFFFF" width="2.2" height="2.2"/>
		<rect x="142.6" y="110" fill="#FFFFFF" width="2.2" height="2.2"/>
		<rect x="149" y="112.2" fill="#FFFFFF" width="2" height="2.2"/>
		<rect x="153.2" y="108" fill="#FFFFFF" width="2" height="2"/>
		<rect x="149" y="108" fill="#FFFFFF" width="2" height="2"/>
	</g>
</g>
</svg>
