<?xml version="1.0" encoding="utf-8"?>
<!-- Generator: Adobe Illustrator 18.0.0, SVG Export Plug-In . SVG Version: 6.00 Build 0)  -->
<!DOCTYPE svg PUBLIC "-//W3C//DTD SVG 1.1//EN" "http://www.w3.org/Graphics/SVG/1.1/DTD/svg11.dtd">
<svg version="1.1" id="Layer_1" xmlns="http://www.w3.org/2000/svg" xmlns:xlink="http://www.w3.org/1999/xlink" x="0px" y="0px"
	 viewBox="0 0 300 300" enable-background="new 0 0 300 300" xml:space="preserve">
<g>
	<polyline fill="none" stroke="#FFFFFF" stroke-width="3" stroke-miterlimit="10" points="179.1,134.1 149.5,253.3 117.3,134.1 	"/>
	<path fill="none" stroke="#FFFFFF" stroke-width="3" stroke-miterlimit="10" d="M168.1,71c0,0,19.7,7.1,8.2,25.7l-59,37.2
		c0,0-16.6-13.2-2.6-29"/>
	<path fill="none" stroke="#FFFFFF" stroke-width="3" stroke-miterlimit="10" d="M160.8,98.9L119,125.5c0,0-8.3-7.9-0.5-16.8"/>
	<g>
		<path fill="none" stroke="#FFFFFF" stroke-width="3" stroke-miterlimit="10" d="M152.6,127.9l24.3-0.2c4.2-1.9,7.7-6.1,7.7-11.4"
			/>
	</g>
	<g>
		<g>
			<path fill="none" stroke="#FFFFFF" stroke-width="3" stroke-linejoin="round" stroke-miterlimit="10" d="M176.3,96.7l-59,37.2
				l61.4-0.3c6.7-2.9,12.1-9.6,12.1-18"/>
		</g>
		<g>
			<path fill="none" stroke="#FFFFFF" stroke-width="3" stroke-miterlimit="10" d="M190.7,115.7c0-8.4-7.8-16.1-14.4-19.1"/>
		</g>
	</g>
	<path fill="none" stroke="#FFFFFF" stroke-width="3" stroke-miterlimit="10" d="M114.3,105.1c0,0-4.3-13.8,1.5-24
		c8.9-15.6,23-13.4,34-20.4c13.1-8.4,13.4-17.5,13.4-17.5s15.3,13.1,4.9,27.8C167,72.5,114.3,105.1,114.3,105.1z"/>
	<path fill="none" stroke="#FFFFFF" stroke-width="3" stroke-miterlimit="10" d="M162,68.5l-43.2,27.3c0,0-0.8-10.3,6.3-18.1"/>
	<polyline fill="none" stroke="#FFFFFF" stroke-width="3" stroke-miterlimit="10" points="142.3,201.8 149.7,227 171.1,139.5 	"/>
</g>
</svg>
