<?xml version="1.0" encoding="utf-8"?>
<!-- Generator: Adobe Illustrator 18.0.0, SVG Export Plug-In . SVG Version: 6.00 Build 0)  -->
<!DOCTYPE svg PUBLIC "-//W3C//DTD SVG 1.1//EN" "http://www.w3.org/Graphics/SVG/1.1/DTD/svg11.dtd">
<svg version="1.1" id="Layer_1" xmlns="http://www.w3.org/2000/svg" xmlns:xlink="http://www.w3.org/1999/xlink" x="0px" y="0px"
	 viewBox="0 0 250 250" enable-background="new 0 0 250 250" xml:space="preserve">
<g>
	<g>
		<path fill="#FFFFFF" stroke="#FF3F3D" stroke-width="3" stroke-miterlimit="10" d="M211.1,142.6"/>
		<path fill="#FFFFFF" stroke="#FF3F3D" stroke-width="3" stroke-miterlimit="10" d="M44.6,127.1c0-44.3,35.9-80.3,80.3-80.3
			s80.3,35.9,80.3,80.3"/>
		<path fill="#FFFFFF" stroke="#FF3F3D" stroke-width="3" stroke-miterlimit="10" d="M51.2,127.7c0-40.6,32.9-73.5,73.5-73.5
			s73.5,32.9,73.5,73.5"/>
	</g>
	<g>
		<path fill="#FFFFFF" stroke="#FF3F3D" stroke-width="3" stroke-miterlimit="10" d="M61,194l-21,2.9c-3.6,0.5-6.9-2-7.4-5.6
			l-7.6-55c-0.5-3.6,2-6.9,5.6-7.4l21-2.9c3.6-0.5,6.9,2,7.4,5.6l7.6,55C67.1,190.2,64.5,193.5,61,194z"/>
		<path fill="#FFFFFF" stroke="#FF3F3D" stroke-width="3" stroke-miterlimit="10" d="M53.6,140.2l6.2,44.8c0.2,1.2-0.7,2.3-1.9,2.5
			l-18.8,2.6"/>
		<path fill="#FFFFFF" stroke="#FF3F3D" stroke-width="3" stroke-miterlimit="10" d="M29.7,171.2c-3.3,0.5-7.3-2.4-8-6.7
			c-0.6-4.2,2.4-8.2,5.7-8.7L29.7,171.2z"/>
	</g>
	<g>
		<path fill="#FFFFFF" stroke="#FF3F3D" stroke-width="3" stroke-miterlimit="10" d="M188.5,194l21,2.9c3.6,0.5,6.9-2,7.4-5.6
			l7.6-55c0.5-3.6-2-6.9-5.6-7.4l-21-2.9c-3.6-0.5-6.9,2-7.4,5.6l-7.6,55C182.3,190.2,184.9,193.5,188.5,194z"/>
		<path fill="#FFFFFF" stroke="#FF3F3D" stroke-width="3" stroke-miterlimit="10" d="M217,144l-6.4,44.8c-0.2,1.2-1.3,2-2.5,1.9
			l-18.8-2.7"/>
		<path fill="#FFFFFF" stroke="#FF3F3D" stroke-width="3" stroke-miterlimit="10" d="M219.7,171.2c3.3,0.5,7.3-2.4,8-6.7
			c0.6-4.2-2.4-8.2-5.7-8.7L219.7,171.2z"/>
	</g>
</g>
</svg>
