<?xml version="1.0" encoding="utf-8"?>
<!-- Generator: Adobe Illustrator 18.0.0, SVG Export Plug-In . SVG Version: 6.00 Build 0)  -->
<!DOCTYPE svg PUBLIC "-//W3C//DTD SVG 1.1//EN" "http://www.w3.org/Graphics/SVG/1.1/DTD/svg11.dtd">
<svg version="1.1" id="Layer_1" xmlns="http://www.w3.org/2000/svg" xmlns:xlink="http://www.w3.org/1999/xlink" x="0px" y="0px"
	 viewBox="0 0 300 300" enable-background="new 0 0 300 300" xml:space="preserve">
<g>
	<path fill="none" d="M218.3,80.1c4.7-1.3,7.7-4.4,7.5-6.4c-0.1-0.8-3.2-1.4-5.6-1.9c-0.6-0.1-1.3-0.3-2-0.4l-4.1,9.5
		C215.5,80.7,217.4,80.3,218.3,80.1z"/>
	<path fill="none" d="M199.9,61.2L199.9,61.2l-10.1,1.7c0,0.1,0,0.1,0,0.1h-1.5h-1.5c0-3,0.7-6,1.7-8.4c-1.1,0.6-2.2,1.6-3.3,2.6
		c-4.8,4.9-7.5,13.2-7.3,22.6c0.2,13.3,3.3,52.7,3.4,53.1l0.1,1.6l-65.4,0.4c-32.7,0-38.4,15.4-39.8,26.9
		c-0.7,7.7-1.1,16.5,2.2,30.6c4.2,17.6,8.8,26.3,11.5,31.4c0.3,0.5,0.6,1,0.8,1.5c0.4,0.8,0.8,1.5,1.2,2.3c2.2,4.4,4.1,8.3,7.7,9.1
		l0.7,0.2l7.7,15.9h6.9l-8.4-16.9l1.1-0.7c6-3.9,11.9-14.1,14.9-26l0-0.1c1.2-4.6,1.7-6.7,1.9-10.9l0.1-1.8l1.8,0.4
		c6.1,1.3,12.9,1.9,20.1,1.9c1.3,0,2.6,0,3.9,0c1.2,0,2.4,0,3.5,0c5.6,0,11.6-0.1,18.3-1.8l1.7-0.5v29.7c0,4.6,3.3,9.3,7.2,10.4
		l0.7,0.2l7.9,16h7l-8.1-16.7l1-0.7c2.6-1.7,4.4-5.7,4.4-9.3v-32.5l1-0.4c8.9-4.3,18.4-15.7,19.3-29.2l-3.7-83.1l5.6-13
		c-0.1-6.7-5.3-9.1-14.2-12.2l-0.5,5.4L199.9,61.2z M82.2,163.4c-0.6,6.3-0.9,13.5,1.8,25l-2.9,0.7c-2.8-11.9-2.5-19.4-1.9-26
		c2.1-16.5,13.7-24.5,35.4-24.5l49.6-0.3l0,3l-49.6,0.3C88,141.6,83.4,154,82.2,163.4z M142.5,195.8c-8-0.5-15-1.3-21-2.5
		c0,0.1,0,0.3,0,0.4c-0.1,3.2-0.1,5.4-0.9,9.9c-2.5,15.6-10.8,25.9-17.1,30l-1.6-2.5c6.2-4,13.5-14.2,15.8-27.9
		c0.7-4.3,0.7-6.3,0.8-9.5c0-0.7,0-1.4,0.1-2.2l0.1-1.8l1.8,0.4c6.2,1.3,13.7,2.2,22.3,2.8c9.9,0.6,19.5,1,28.4-1.5l0.8,2.9
		C162.6,196.8,152.7,196.5,142.5,195.8z M208.3,92.5l3,71.6l-0.1,0.1c-0.8,13.4-11.2,23.2-21.2,28.1v34.2c0,2-2.1,5.7-5.2,7.8
		l-1.7-2.5c2.5-1.6,3.9-4.4,3.9-5.3v-36.1l1-0.4c9.2-4.3,19.4-13.4,20.2-25.9l-3-71.5L208.3,92.5z"/>
	<path fill="#FFFFFF" d="M212.7,81.1c0.3,0,0.8-0.1,1.4-0.2l4.1-9.5c-0.1,0-0.2,0-0.3-0.1l0.5-2.9c0.3,0.1,0.7,0.1,0.7,0.2v-0.1
		c0-9.6-8.1-12.6-16.9-15.6l-0.2,3.1c9,3.1,14.1,5.5,14.3,12.2l-5.5,13l3.7,83.1c-0.9,13.5-10.4,24.9-19.4,29.2l-1,0.4v32.5
		c0,3.6-1.8,7.6-4.4,9.3l-1,0.7l8.2,16.7h-7l-7.8-16l-0.7-0.2c-3.9-1.2-7.2-5.9-7.2-10.4v-29.7l-1.7,0.5c-6.7,1.7-12.7,1.8-18.3,1.8
		c-1.2,0-2.3,0-3.5,0c-1.3,0-2.5,0-3.9,0c-7.2,0-14-0.7-20.1-1.9l-1.8-0.4l-0.1,1.8c-0.1,4.1-0.7,6.2-1.9,10.9l0,0.1
		c-3.1,11.9-8.9,22.1-14.9,26l-1.1,0.7l8.4,16.9h-6.9l-7.7-15.9l-0.7-0.2c-3.6-0.9-5.5-4.7-7.7-9.1c-0.4-0.8-0.8-1.5-1.2-2.3
		c-0.2-0.5-0.5-1-0.8-1.5c-2.8-5.2-7.4-13.8-11.5-31.4c-3.3-14.1-2.9-22.8-2.2-30.6c1.4-11.5,7.1-26.9,39.8-26.9l65.4-0.4l-0.1-1.6
		c0-0.4-3.1-39.8-3.4-53.1c-0.2-9.5,2.5-17.7,7.3-22.6c1-1.1,2.1-1.9,3.3-2.5c0.7-1.6,1.6-2.9,2.5-4.1c-2.8,0.6-5.5,2.1-7.9,4.6
		c-5.4,5.5-8.3,14.5-8.1,24.8c0.2,11.9,2.7,44.1,3.2,51.7l-62.1,0.4c-26.3,0-40.3,9.7-42.8,29.6c-0.7,8-1.1,17.1,2.3,31.6
		c4.2,18,9,26.9,11.8,32.2c0.3,0.5,0.5,1,0.8,1.5c0.4,0.8,0.8,1.5,1.1,2.3c2.3,4.7,4.5,9.1,9,10.5l7.9,16.4h13.6l-9.3-18.9
		c6.3-4.7,12-14.9,15.1-27l0-0.1c1-4,1.6-6.4,1.9-9.8c5.9,1.1,12.2,1.7,19,1.7c1.3,0,2.6,0,3.8,0c1.2,0,2.3,0,3.4,0
		c5.3,0,11.1-0.1,17.1-1.5v25.9c0,5.7,3.8,11.3,8.7,13.1l8.2,16.6h13.6l-9.2-18.7c2.9-2.5,4.7-6.9,4.7-11v-30.6
		c10-5,19.3-17.1,20.2-31.3l0.1-0.1L213.8,84c-0.4,0.1-0.6,0.1-0.7,0.1L212.7,81.1z"/>
	<path fill="#FFFFFF" d="M164.3,141.2l0-3l-49.6,0.3c-21.8,0-33.4,8-35.4,24.5c-0.6,6.6-0.9,14.1,1.9,26l2.9-0.7
		c-2.7-11.5-2.4-18.7-1.8-25c1.2-9.4,5.8-21.9,32.5-21.9L164.3,141.2z"/>
	<path fill="#FFFFFF" d="M189.7,63c0.1-4.1,1.3-7.2,2.9-9.6c0.8-1.1,1.6-2.1,2.5-2.9c1.8-1.7,3.7-2.8,4.7-3.2l-0.4,4.5l-0.3,3.1
		l-0.6,6.1l1.5,0.1l1.5,0.1l0.5-5.4l0.3-3.1l0.8-7.8l-0.5-0.4c-0.5-0.5-1.1-0.7-1.8-0.7c0,0,0,0,0,0c-0.6,0-1.1,0.1-1.6,0.4
		c-1,0.5-4.9,2.3-8,6.2c0,0,0,0,0,0c-0.9,1.1-1.7,2.4-2.4,3.9c0,0-0.1,0-0.1,0.1c-1.1,2.4-1.7,5.4-1.7,8.4h1.2"/>
	<path fill="#FFFFFF" d="M228.8,73.4c-0.3-3-3.6-3.6-8.1-4.6c-0.5-0.1-0.7-0.2-1.7-0.3v0.2l-1,2.6c0.7,0.2,1.4,0.3,2.1,0.4
		c2.5,0.5,5.6,1.2,5.7,1.9c0.2,2-2.8,5.1-7.5,6.4c-0.9,0.2-2.8,0.6-4.2,0.8l-0.4,0.9l0.1,2.2c1.3-0.2,4.1-0.6,5.3-1
		C225,81.4,229.1,77.3,228.8,73.4z"/>
	<path fill="#FFFFFF" d="M217.8,71.3c0.1,0,0.1,0,0.2,0.1l1-2.6v-0.2c0-0.1-0.4-0.1-0.7-0.2L217.8,71.3z"/>
	<path fill="#FFFFFF" d="M214,80.9c-0.6,0.1-1.1,0.2-1.4,0.2l0.4,3c0,0,0.3,0,0.7-0.1l-0.1-2.2L214,80.9z"/>
	<path fill="#FFFFFF" d="M188,190l-1,0.4v36.1c0,0.8-1.4,3.6-3.9,5.3l1.6,2.5c3.1-2.1,5.3-5.7,5.3-7.8v-34.2
		c10-4.9,20.3-14.6,21.2-28.1l0.1-0.1l-3-71.6l-3,0.1l2.9,71.5C207.4,176.6,197.2,185.6,188,190z"/>
	<path fill="#FFFFFF" d="M142.7,192.8c-8.6-0.5-16.2-1.5-22.3-2.8l-1.8-0.4l-0.1,1.8c0,0.8,0,1.5-0.1,2.2c-0.1,3.2-0.1,5.2-0.8,9.5
		c-2.2,13.7-9.5,23.9-15.8,27.9l1.6,2.5c6.3-4.1,14.6-14.3,17.1-30c0.7-4.5,0.8-6.7,0.9-9.9c0-0.1,0-0.3,0-0.4c5.9,1.1,13,2,21,2.5
		c10.1,0.6,20,1,29.4-1.6l-0.8-2.9C162.2,193.8,152.6,193.5,142.7,192.8z"/>
</g>
</svg>
