<?xml version="1.0" encoding="utf-8"?>
<!-- Generator: Adobe Illustrator 18.0.0, SVG Export Plug-In . SVG Version: 6.00 Build 0)  -->
<!DOCTYPE svg PUBLIC "-//W3C//DTD SVG 1.1//EN" "http://www.w3.org/Graphics/SVG/1.1/DTD/svg11.dtd">
<svg version="1.1" id="Layer_1" xmlns="http://www.w3.org/2000/svg" xmlns:xlink="http://www.w3.org/1999/xlink" x="0px" y="0px"
	 viewBox="0 0 100 100" enable-background="new 0 0 100 100" xml:space="preserve">
<g>
	<path fill="#FFFFFF" d="M30.8,87.2h3.4h3.4h3.4h3.4h3.4h3.4h3.4h3.4h3.4h3.4H68h3.8V84v-3.4v-3.7h-3.5v-3.1v-3.4v-3.4v-3.4v-3.8H65
		v-3.2h-3.5v-3.5H58v-3v-3.7h3.5v-3.2H65v-3.5h3.2v-3.1v-3.4v-3.4v-3.4v-3.8h3.5v-3v-3.4v-3.6H68h-3.4h-3.4h-3.4h-3.4h-3.4h-3.4
		h-3.4h-3.4h-3.4h-3.4h-3.4h-3.2v3.6v3.4v3h3.5v3.8v3.4v3.4v3.4v3.1h3.5v3.5h3.2v3.2h3.5v3.7v3h-3.5v3.5h-3.2v3.2h-3.5v3.8v3.4v3.4
		v3.4v3.1h-3.5v3.7V84v3.2H30.8z M61.2,83.7h-3.4h-3.4h-3.4h-3.4h-3.4h-3.4h-3.4h-3v-3.2h3h3.4h3.4h3.4h3.4h3.4h3.4h3.4H65v3.2H61.2
		z M37.6,16h3.4h3.4h3.4h3.4h3.4h3.4h3.4H65v3.5h-3.8h-3.4h-3.4h-3.4h-3.4h-3.4h-3.4h-3.4h-3V16H37.6z M34.6,73.9v-3.4v-3.4v-3.6
		h3.2v-3.5h3.5v-3.2h3.2v-3.5h3.5v-3v-3.7h-3.5v-3.2h-3.2v-3.5h-3.5v-3.2h-3.2v-3.2v-3.4v-3.4v-3.8h3h3.4h3.4h3.4h3.4h3.4h3.4h3.4
		H65v3.8v3.4v3.4v3.2h-3.5v3.2H58v3.5h-3.2v3.2h-3.5v3.7v3h3.5v3.5H58v3.2h3.5v3.5H65v3.6v3.4v3.4v3.1h-3.8h-3.4h-3.4h-3.4h-3.4
		h-3.4h-3.4h-3.4h-3V73.9z"/>
	<rect x="48.1" y="56.7" fill="#FFFFFF" width="3.2" height="3.2"/>
	<rect x="41.3" y="63.5" fill="#FFFFFF" width="3.2" height="3.2"/>
	<rect x="54.8" y="63.5" fill="#FFFFFF" width="3.2" height="3.2"/>
	<rect x="48.1" y="63.5" fill="#FFFFFF" width="3.2" height="3.2"/>
	<rect x="58.2" y="66.7" fill="#FFFFFF" width="3.2" height="3.2"/>
	<rect x="44.7" y="66.7" fill="#FFFFFF" width="3.2" height="3.2"/>
	<rect x="48.1" y="39.7" fill="#FFFFFF" width="3.2" height="3.5"/>
	<rect x="51.3" y="36.5" fill="#FFFFFF" width="3.5" height="3.2"/>
	<rect x="44.5" y="36.5" fill="#FFFFFF" width="3.5" height="3.2"/>
	<rect x="44.5" y="29.5" fill="#FFFFFF" width="3.5" height="3.5"/>
	<rect x="34.3" y="26" fill="#FFFFFF" width="3.5" height="3.5"/>
	<rect x="41.3" y="33" fill="#FFFFFF" width="3.2" height="3.5"/>
	<rect x="54.8" y="33" fill="#FFFFFF" width="3.2" height="3.5"/>
	<rect x="58" y="29.5" fill="#FFFFFF" width="3.5" height="3.5"/>
	<rect x="37.8" y="29.5" fill="#FFFFFF" width="3.5" height="3.5"/>
	<rect x="48.1" y="33" fill="#FFFFFF" width="3.2" height="3.5"/>
	<rect x="54.8" y="26.3" fill="#FFFFFF" width="3.2" height="3.2"/>
	<rect x="48.1" y="26.3" fill="#FFFFFF" width="3.2" height="3.2"/>
	<rect x="51.3" y="29.5" fill="#FFFFFF" width="3.5" height="3.5"/>
</g>
</svg>
